<mxfile host="app.diagrams.net" modified="2023-10-05T16:45:30.876Z" agent="Mozilla/5.0 (Macintosh; Intel Mac OS X 10.15; rv:109.0) Gecko/20100101 Firefox/118.0" etag="oNhCJaito23JkKEwZzb6" version="22.0.2" type="device">
  <diagram id="D4XD-stfcbqHm6u8IKLA" name="Page-1">
    <mxGraphModel dx="2383" dy="1051" grid="1" gridSize="10" guides="1" tooltips="1" connect="1" arrows="1" fold="1" page="1" pageScale="1" pageWidth="850" pageHeight="1100" math="0" shadow="0">
      <root>
        <mxCell id="0" />
        <mxCell id="1" parent="0" />
        <mxCell id="s9SOw5TSL-tmGERgOmM0-3" style="rounded=0;orthogonalLoop=1;jettySize=auto;html=1;exitX=0;exitY=1;exitDx=0;exitDy=0;entryX=1;entryY=0;entryDx=0;entryDy=0;strokeWidth=5;" parent="1" source="s9SOw5TSL-tmGERgOmM0-1" target="s9SOw5TSL-tmGERgOmM0-2" edge="1">
          <mxGeometry relative="1" as="geometry" />
        </mxCell>
        <mxCell id="s9SOw5TSL-tmGERgOmM0-5" style="rounded=0;orthogonalLoop=1;jettySize=auto;html=1;exitX=1;exitY=1;exitDx=0;exitDy=0;entryX=0;entryY=0;entryDx=0;entryDy=0;strokeWidth=5;" parent="1" source="s9SOw5TSL-tmGERgOmM0-1" target="s9SOw5TSL-tmGERgOmM0-4" edge="1">
          <mxGeometry relative="1" as="geometry" />
        </mxCell>
        <mxCell id="s9SOw5TSL-tmGERgOmM0-1" value="&lt;font style=&quot;font-size: 40px;&quot;&gt;7&lt;/font&gt;" style="ellipse;whiteSpace=wrap;html=1;aspect=fixed;strokeWidth=5;" parent="1" vertex="1">
          <mxGeometry x="210" y="590" width="80" height="80" as="geometry" />
        </mxCell>
        <mxCell id="s9SOw5TSL-tmGERgOmM0-9" style="edgeStyle=none;shape=connector;rounded=0;orthogonalLoop=1;jettySize=auto;html=1;exitX=0;exitY=1;exitDx=0;exitDy=0;entryX=1;entryY=0;entryDx=0;entryDy=0;labelBackgroundColor=default;strokeColor=default;strokeWidth=5;fontFamily=Helvetica;fontSize=11;fontColor=default;endArrow=classic;" parent="1" source="s9SOw5TSL-tmGERgOmM0-2" target="s9SOw5TSL-tmGERgOmM0-8" edge="1">
          <mxGeometry relative="1" as="geometry" />
        </mxCell>
        <mxCell id="VsR7F8Zh5hgwnbF70GJV-5" style="rounded=0;orthogonalLoop=1;jettySize=auto;html=1;strokeWidth=5;" edge="1" parent="1" source="s9SOw5TSL-tmGERgOmM0-2" target="VsR7F8Zh5hgwnbF70GJV-2">
          <mxGeometry relative="1" as="geometry" />
        </mxCell>
        <mxCell id="s9SOw5TSL-tmGERgOmM0-2" value="&lt;font style=&quot;font-size: 36px;&quot;&gt;2&lt;/font&gt;" style="ellipse;whiteSpace=wrap;html=1;aspect=fixed;strokeWidth=5;" parent="1" vertex="1">
          <mxGeometry x="75" y="750" width="80" height="80" as="geometry" />
        </mxCell>
        <mxCell id="s9SOw5TSL-tmGERgOmM0-4" value="8" style="ellipse;whiteSpace=wrap;html=1;aspect=fixed;strokeWidth=5;fontSize=40;" parent="1" vertex="1">
          <mxGeometry x="320" y="750" width="80" height="80" as="geometry" />
        </mxCell>
        <mxCell id="s9SOw5TSL-tmGERgOmM0-8" value="&lt;font style=&quot;font-size: 40px;&quot;&gt;1&lt;/font&gt;" style="ellipse;whiteSpace=wrap;html=1;aspect=fixed;strokeWidth=5;" parent="1" vertex="1">
          <mxGeometry x="-50" y="910" width="80" height="80" as="geometry" />
        </mxCell>
        <mxCell id="VsR7F8Zh5hgwnbF70GJV-1" value="&lt;font style=&quot;font-size: 42px;&quot;&gt;3) BST Count Odds&lt;font style=&quot;font-size: 42px;&quot;&gt;&lt;br&gt;&lt;/font&gt;&lt;/font&gt;" style="text;html=1;align=center;verticalAlign=middle;resizable=0;points=[];autosize=1;strokeColor=none;fillColor=none;" vertex="1" parent="1">
          <mxGeometry x="-130" y="1240" width="390" height="60" as="geometry" />
        </mxCell>
        <mxCell id="VsR7F8Zh5hgwnbF70GJV-2" value="&lt;font style=&quot;font-size: 40px;&quot;&gt;5&lt;/font&gt;" style="ellipse;whiteSpace=wrap;html=1;aspect=fixed;strokeWidth=5;" vertex="1" parent="1">
          <mxGeometry x="160" y="920" width="80" height="80" as="geometry" />
        </mxCell>
        <mxCell id="VsR7F8Zh5hgwnbF70GJV-6" style="rounded=0;orthogonalLoop=1;jettySize=auto;html=1;exitX=0;exitY=1;exitDx=0;exitDy=0;entryX=1;entryY=0;entryDx=0;entryDy=0;strokeWidth=5;" edge="1" parent="1" source="VsR7F8Zh5hgwnbF70GJV-8" target="VsR7F8Zh5hgwnbF70GJV-11">
          <mxGeometry relative="1" as="geometry" />
        </mxCell>
        <mxCell id="VsR7F8Zh5hgwnbF70GJV-7" style="rounded=0;orthogonalLoop=1;jettySize=auto;html=1;exitX=1;exitY=1;exitDx=0;exitDy=0;entryX=0;entryY=0;entryDx=0;entryDy=0;strokeWidth=5;" edge="1" parent="1" source="VsR7F8Zh5hgwnbF70GJV-8" target="VsR7F8Zh5hgwnbF70GJV-12">
          <mxGeometry relative="1" as="geometry" />
        </mxCell>
        <mxCell id="VsR7F8Zh5hgwnbF70GJV-8" value="&lt;font style=&quot;font-size: 40px;&quot;&gt;7&lt;/font&gt;" style="ellipse;whiteSpace=wrap;html=1;aspect=fixed;strokeWidth=5;fillColor=#d5e8d4;strokeColor=#82b366;" vertex="1" parent="1">
          <mxGeometry x="280" y="1540" width="80" height="80" as="geometry" />
        </mxCell>
        <mxCell id="VsR7F8Zh5hgwnbF70GJV-9" style="edgeStyle=none;shape=connector;rounded=0;orthogonalLoop=1;jettySize=auto;html=1;exitX=0;exitY=1;exitDx=0;exitDy=0;entryX=1;entryY=0;entryDx=0;entryDy=0;labelBackgroundColor=default;strokeColor=default;strokeWidth=5;fontFamily=Helvetica;fontSize=11;fontColor=default;endArrow=classic;" edge="1" parent="1" source="VsR7F8Zh5hgwnbF70GJV-11" target="VsR7F8Zh5hgwnbF70GJV-13">
          <mxGeometry relative="1" as="geometry" />
        </mxCell>
        <mxCell id="VsR7F8Zh5hgwnbF70GJV-10" style="rounded=0;orthogonalLoop=1;jettySize=auto;html=1;strokeWidth=5;" edge="1" parent="1" source="VsR7F8Zh5hgwnbF70GJV-11" target="VsR7F8Zh5hgwnbF70GJV-15">
          <mxGeometry relative="1" as="geometry" />
        </mxCell>
        <mxCell id="VsR7F8Zh5hgwnbF70GJV-11" value="&lt;font style=&quot;font-size: 36px;&quot;&gt;2&lt;/font&gt;" style="ellipse;whiteSpace=wrap;html=1;aspect=fixed;strokeWidth=5;fillColor=#d5e8d4;strokeColor=#82b366;" vertex="1" parent="1">
          <mxGeometry x="85" y="1700" width="80" height="80" as="geometry" />
        </mxCell>
        <mxCell id="VsR7F8Zh5hgwnbF70GJV-19" style="edgeStyle=none;shape=connector;rounded=0;orthogonalLoop=1;jettySize=auto;html=1;labelBackgroundColor=default;strokeColor=default;strokeWidth=5;align=center;verticalAlign=middle;fontFamily=Helvetica;fontSize=11;fontColor=default;endArrow=classic;" edge="1" parent="1" source="VsR7F8Zh5hgwnbF70GJV-12" target="VsR7F8Zh5hgwnbF70GJV-18">
          <mxGeometry relative="1" as="geometry" />
        </mxCell>
        <mxCell id="VsR7F8Zh5hgwnbF70GJV-21" style="edgeStyle=none;shape=connector;rounded=0;orthogonalLoop=1;jettySize=auto;html=1;labelBackgroundColor=default;strokeColor=default;strokeWidth=5;align=center;verticalAlign=middle;fontFamily=Helvetica;fontSize=11;fontColor=default;endArrow=classic;" edge="1" parent="1" source="VsR7F8Zh5hgwnbF70GJV-12" target="VsR7F8Zh5hgwnbF70GJV-20">
          <mxGeometry relative="1" as="geometry" />
        </mxCell>
        <mxCell id="VsR7F8Zh5hgwnbF70GJV-12" value="9" style="ellipse;whiteSpace=wrap;html=1;aspect=fixed;strokeWidth=5;fontSize=40;fillColor=#d5e8d4;strokeColor=#82b366;" vertex="1" parent="1">
          <mxGeometry x="470" y="1700" width="80" height="80" as="geometry" />
        </mxCell>
        <mxCell id="VsR7F8Zh5hgwnbF70GJV-13" value="&lt;font style=&quot;font-size: 40px;&quot;&gt;1&lt;/font&gt;" style="ellipse;whiteSpace=wrap;html=1;aspect=fixed;strokeWidth=5;" vertex="1" parent="1">
          <mxGeometry x="-70" y="1860" width="80" height="80" as="geometry" />
        </mxCell>
        <mxCell id="VsR7F8Zh5hgwnbF70GJV-14" value="&lt;font style=&quot;font-size: 42px;&quot;&gt;4) BST &lt;font style=&quot;font-size: 42px;&quot;&gt;Count Internal&lt;br&gt;&lt;/font&gt;&lt;/font&gt;" style="text;html=1;align=center;verticalAlign=middle;resizable=0;points=[];autosize=1;strokeColor=none;fillColor=none;" vertex="1" parent="1">
          <mxGeometry x="-140" y="1330" width="430" height="60" as="geometry" />
        </mxCell>
        <mxCell id="VsR7F8Zh5hgwnbF70GJV-17" style="edgeStyle=none;shape=connector;rounded=0;orthogonalLoop=1;jettySize=auto;html=1;labelBackgroundColor=default;strokeColor=default;strokeWidth=5;align=center;verticalAlign=middle;fontFamily=Helvetica;fontSize=11;fontColor=default;endArrow=classic;" edge="1" parent="1" source="VsR7F8Zh5hgwnbF70GJV-15" target="VsR7F8Zh5hgwnbF70GJV-16">
          <mxGeometry relative="1" as="geometry" />
        </mxCell>
        <mxCell id="VsR7F8Zh5hgwnbF70GJV-15" value="&lt;font style=&quot;font-size: 40px;&quot;&gt;5&lt;/font&gt;" style="ellipse;whiteSpace=wrap;html=1;aspect=fixed;strokeWidth=5;fillColor=#d5e8d4;strokeColor=#82b366;" vertex="1" parent="1">
          <mxGeometry x="170" y="1870" width="80" height="80" as="geometry" />
        </mxCell>
        <mxCell id="VsR7F8Zh5hgwnbF70GJV-16" value="&lt;font style=&quot;font-size: 40px;&quot;&gt;4&lt;/font&gt;" style="ellipse;whiteSpace=wrap;html=1;aspect=fixed;strokeWidth=5;fontFamily=Helvetica;fontSize=11;fontColor=default;" vertex="1" parent="1">
          <mxGeometry x="80" y="2010" width="80" height="80" as="geometry" />
        </mxCell>
        <mxCell id="VsR7F8Zh5hgwnbF70GJV-18" value="8" style="ellipse;whiteSpace=wrap;html=1;aspect=fixed;strokeWidth=5;fontSize=40;fontFamily=Helvetica;fontColor=default;" vertex="1" parent="1">
          <mxGeometry x="360" y="1850" width="80" height="80" as="geometry" />
        </mxCell>
        <mxCell id="VsR7F8Zh5hgwnbF70GJV-20" value="10" style="ellipse;whiteSpace=wrap;html=1;aspect=fixed;strokeWidth=5;fontSize=40;fontFamily=Helvetica;fontColor=default;" vertex="1" parent="1">
          <mxGeometry x="570" y="1840" width="80" height="80" as="geometry" />
        </mxCell>
        <mxCell id="VsR7F8Zh5hgwnbF70GJV-22" style="rounded=0;orthogonalLoop=1;jettySize=auto;html=1;exitX=0;exitY=1;exitDx=0;exitDy=0;entryX=1;entryY=0;entryDx=0;entryDy=0;strokeWidth=5;" edge="1" parent="1" source="VsR7F8Zh5hgwnbF70GJV-24" target="VsR7F8Zh5hgwnbF70GJV-27">
          <mxGeometry relative="1" as="geometry" />
        </mxCell>
        <mxCell id="VsR7F8Zh5hgwnbF70GJV-23" style="rounded=0;orthogonalLoop=1;jettySize=auto;html=1;exitX=1;exitY=1;exitDx=0;exitDy=0;entryX=0;entryY=0;entryDx=0;entryDy=0;strokeWidth=5;" edge="1" parent="1" source="VsR7F8Zh5hgwnbF70GJV-24" target="VsR7F8Zh5hgwnbF70GJV-30">
          <mxGeometry relative="1" as="geometry" />
        </mxCell>
        <mxCell id="VsR7F8Zh5hgwnbF70GJV-24" value="&lt;font style=&quot;font-size: 40px;&quot;&gt;5&lt;/font&gt;" style="ellipse;whiteSpace=wrap;html=1;aspect=fixed;strokeWidth=5;fillColor=#d5e8d4;strokeColor=#82b366;" vertex="1" parent="1">
          <mxGeometry x="1130" y="560" width="80" height="80" as="geometry" />
        </mxCell>
        <mxCell id="VsR7F8Zh5hgwnbF70GJV-25" style="edgeStyle=none;shape=connector;rounded=0;orthogonalLoop=1;jettySize=auto;html=1;exitX=0;exitY=1;exitDx=0;exitDy=0;entryX=1;entryY=0;entryDx=0;entryDy=0;labelBackgroundColor=default;strokeColor=default;strokeWidth=5;fontFamily=Helvetica;fontSize=11;fontColor=default;endArrow=classic;" edge="1" parent="1" source="VsR7F8Zh5hgwnbF70GJV-27" target="VsR7F8Zh5hgwnbF70GJV-31">
          <mxGeometry relative="1" as="geometry" />
        </mxCell>
        <mxCell id="VsR7F8Zh5hgwnbF70GJV-26" style="rounded=0;orthogonalLoop=1;jettySize=auto;html=1;strokeWidth=5;" edge="1" parent="1" source="VsR7F8Zh5hgwnbF70GJV-27" target="VsR7F8Zh5hgwnbF70GJV-34">
          <mxGeometry relative="1" as="geometry" />
        </mxCell>
        <mxCell id="VsR7F8Zh5hgwnbF70GJV-27" value="&lt;font style=&quot;font-size: 36px;&quot;&gt;2&lt;/font&gt;" style="ellipse;whiteSpace=wrap;html=1;aspect=fixed;strokeWidth=5;fillColor=#d5e8d4;strokeColor=#82b366;" vertex="1" parent="1">
          <mxGeometry x="935" y="720" width="80" height="80" as="geometry" />
        </mxCell>
        <mxCell id="VsR7F8Zh5hgwnbF70GJV-28" style="edgeStyle=none;shape=connector;rounded=0;orthogonalLoop=1;jettySize=auto;html=1;labelBackgroundColor=default;strokeColor=default;strokeWidth=5;align=center;verticalAlign=middle;fontFamily=Helvetica;fontSize=11;fontColor=default;endArrow=classic;" edge="1" parent="1" source="VsR7F8Zh5hgwnbF70GJV-30" target="VsR7F8Zh5hgwnbF70GJV-36">
          <mxGeometry relative="1" as="geometry" />
        </mxCell>
        <mxCell id="VsR7F8Zh5hgwnbF70GJV-29" style="edgeStyle=none;shape=connector;rounded=0;orthogonalLoop=1;jettySize=auto;html=1;labelBackgroundColor=default;strokeColor=default;strokeWidth=5;align=center;verticalAlign=middle;fontFamily=Helvetica;fontSize=11;fontColor=default;endArrow=classic;" edge="1" parent="1" source="VsR7F8Zh5hgwnbF70GJV-30" target="VsR7F8Zh5hgwnbF70GJV-37">
          <mxGeometry relative="1" as="geometry" />
        </mxCell>
        <mxCell id="VsR7F8Zh5hgwnbF70GJV-30" value="6" style="ellipse;whiteSpace=wrap;html=1;aspect=fixed;strokeWidth=5;fontSize=40;fillColor=#d5e8d4;strokeColor=#82b366;" vertex="1" parent="1">
          <mxGeometry x="1320" y="720" width="80" height="80" as="geometry" />
        </mxCell>
        <mxCell id="VsR7F8Zh5hgwnbF70GJV-31" value="&lt;font style=&quot;font-size: 40px;&quot;&gt;1&lt;/font&gt;" style="ellipse;whiteSpace=wrap;html=1;aspect=fixed;strokeWidth=5;" vertex="1" parent="1">
          <mxGeometry x="780" y="880" width="80" height="80" as="geometry" />
        </mxCell>
        <mxCell id="VsR7F8Zh5hgwnbF70GJV-32" value="&lt;font style=&quot;font-size: 42px;&quot;&gt;5) BST Node Level&lt;font style=&quot;font-size: 42px;&quot;&gt;&lt;br&gt;&lt;/font&gt;&lt;/font&gt;" style="text;html=1;align=center;verticalAlign=middle;resizable=0;points=[];autosize=1;strokeColor=none;fillColor=none;" vertex="1" parent="1">
          <mxGeometry x="-115" y="1440" width="380" height="60" as="geometry" />
        </mxCell>
        <mxCell id="VsR7F8Zh5hgwnbF70GJV-33" style="edgeStyle=none;shape=connector;rounded=0;orthogonalLoop=1;jettySize=auto;html=1;labelBackgroundColor=default;strokeColor=default;strokeWidth=5;align=center;verticalAlign=middle;fontFamily=Helvetica;fontSize=11;fontColor=default;endArrow=classic;" edge="1" parent="1" source="VsR7F8Zh5hgwnbF70GJV-34" target="VsR7F8Zh5hgwnbF70GJV-35">
          <mxGeometry relative="1" as="geometry" />
        </mxCell>
        <mxCell id="VsR7F8Zh5hgwnbF70GJV-34" value="&lt;font style=&quot;font-size: 40px;&quot;&gt;3&lt;/font&gt;" style="ellipse;whiteSpace=wrap;html=1;aspect=fixed;strokeWidth=5;fillColor=#d5e8d4;strokeColor=#82b366;" vertex="1" parent="1">
          <mxGeometry x="1020" y="890" width="80" height="80" as="geometry" />
        </mxCell>
        <mxCell id="VsR7F8Zh5hgwnbF70GJV-35" value="&lt;font style=&quot;font-size: 40px;&quot;&gt;4&lt;/font&gt;" style="ellipse;whiteSpace=wrap;html=1;aspect=fixed;strokeWidth=5;fontFamily=Helvetica;fontSize=11;fontColor=default;" vertex="1" parent="1">
          <mxGeometry x="930" y="1030" width="80" height="80" as="geometry" />
        </mxCell>
        <mxCell id="VsR7F8Zh5hgwnbF70GJV-36" value="7" style="ellipse;whiteSpace=wrap;html=1;aspect=fixed;strokeWidth=5;fontSize=40;fontFamily=Helvetica;fontColor=default;" vertex="1" parent="1">
          <mxGeometry x="1210" y="870" width="80" height="80" as="geometry" />
        </mxCell>
        <mxCell id="VsR7F8Zh5hgwnbF70GJV-37" value="10" style="ellipse;whiteSpace=wrap;html=1;aspect=fixed;strokeWidth=5;fontSize=40;fontFamily=Helvetica;fontColor=default;" vertex="1" parent="1">
          <mxGeometry x="1420" y="860" width="80" height="80" as="geometry" />
        </mxCell>
        <mxCell id="VsR7F8Zh5hgwnbF70GJV-38" style="rounded=0;orthogonalLoop=1;jettySize=auto;html=1;exitX=0;exitY=1;exitDx=0;exitDy=0;entryX=1;entryY=0;entryDx=0;entryDy=0;strokeWidth=5;" edge="1" parent="1" source="VsR7F8Zh5hgwnbF70GJV-40" target="VsR7F8Zh5hgwnbF70GJV-43">
          <mxGeometry relative="1" as="geometry" />
        </mxCell>
        <mxCell id="VsR7F8Zh5hgwnbF70GJV-39" style="rounded=0;orthogonalLoop=1;jettySize=auto;html=1;exitX=1;exitY=1;exitDx=0;exitDy=0;entryX=0;entryY=0;entryDx=0;entryDy=0;strokeWidth=5;" edge="1" parent="1" source="VsR7F8Zh5hgwnbF70GJV-40" target="VsR7F8Zh5hgwnbF70GJV-46">
          <mxGeometry relative="1" as="geometry" />
        </mxCell>
        <mxCell id="VsR7F8Zh5hgwnbF70GJV-40" value="&lt;font style=&quot;font-size: 40px;&quot;&gt;7&lt;/font&gt;" style="ellipse;whiteSpace=wrap;html=1;aspect=fixed;strokeWidth=5;fillColor=#d5e8d4;strokeColor=#82b366;" vertex="1" parent="1">
          <mxGeometry x="1410" y="1530" width="80" height="80" as="geometry" />
        </mxCell>
        <mxCell id="VsR7F8Zh5hgwnbF70GJV-41" style="edgeStyle=none;shape=connector;rounded=0;orthogonalLoop=1;jettySize=auto;html=1;exitX=0;exitY=1;exitDx=0;exitDy=0;entryX=1;entryY=0;entryDx=0;entryDy=0;labelBackgroundColor=default;strokeColor=default;strokeWidth=5;fontFamily=Helvetica;fontSize=11;fontColor=default;endArrow=classic;" edge="1" parent="1" source="VsR7F8Zh5hgwnbF70GJV-43" target="VsR7F8Zh5hgwnbF70GJV-47">
          <mxGeometry relative="1" as="geometry" />
        </mxCell>
        <mxCell id="VsR7F8Zh5hgwnbF70GJV-42" style="rounded=0;orthogonalLoop=1;jettySize=auto;html=1;strokeWidth=5;" edge="1" parent="1" source="VsR7F8Zh5hgwnbF70GJV-43" target="VsR7F8Zh5hgwnbF70GJV-49">
          <mxGeometry relative="1" as="geometry" />
        </mxCell>
        <mxCell id="VsR7F8Zh5hgwnbF70GJV-43" value="&lt;font style=&quot;font-size: 36px;&quot;&gt;2&lt;/font&gt;" style="ellipse;whiteSpace=wrap;html=1;aspect=fixed;strokeWidth=5;fillColor=#d5e8d4;strokeColor=#82b366;" vertex="1" parent="1">
          <mxGeometry x="1215" y="1690" width="80" height="80" as="geometry" />
        </mxCell>
        <mxCell id="VsR7F8Zh5hgwnbF70GJV-44" style="edgeStyle=none;shape=connector;rounded=0;orthogonalLoop=1;jettySize=auto;html=1;labelBackgroundColor=default;strokeColor=default;strokeWidth=5;align=center;verticalAlign=middle;fontFamily=Helvetica;fontSize=11;fontColor=default;endArrow=classic;" edge="1" parent="1" source="VsR7F8Zh5hgwnbF70GJV-46" target="VsR7F8Zh5hgwnbF70GJV-51">
          <mxGeometry relative="1" as="geometry" />
        </mxCell>
        <mxCell id="VsR7F8Zh5hgwnbF70GJV-45" style="edgeStyle=none;shape=connector;rounded=0;orthogonalLoop=1;jettySize=auto;html=1;labelBackgroundColor=default;strokeColor=default;strokeWidth=5;align=center;verticalAlign=middle;fontFamily=Helvetica;fontSize=11;fontColor=default;endArrow=classic;" edge="1" parent="1" source="VsR7F8Zh5hgwnbF70GJV-46" target="VsR7F8Zh5hgwnbF70GJV-52">
          <mxGeometry relative="1" as="geometry" />
        </mxCell>
        <mxCell id="VsR7F8Zh5hgwnbF70GJV-46" value="9" style="ellipse;whiteSpace=wrap;html=1;aspect=fixed;strokeWidth=5;fontSize=40;fillColor=#d5e8d4;strokeColor=#82b366;" vertex="1" parent="1">
          <mxGeometry x="1600" y="1690" width="80" height="80" as="geometry" />
        </mxCell>
        <mxCell id="VsR7F8Zh5hgwnbF70GJV-47" value="&lt;font style=&quot;font-size: 40px;&quot;&gt;1&lt;/font&gt;" style="ellipse;whiteSpace=wrap;html=1;aspect=fixed;strokeWidth=5;" vertex="1" parent="1">
          <mxGeometry x="1060" y="1850" width="80" height="80" as="geometry" />
        </mxCell>
        <mxCell id="VsR7F8Zh5hgwnbF70GJV-48" style="edgeStyle=none;shape=connector;rounded=0;orthogonalLoop=1;jettySize=auto;html=1;labelBackgroundColor=default;strokeColor=default;strokeWidth=5;align=center;verticalAlign=middle;fontFamily=Helvetica;fontSize=11;fontColor=default;endArrow=classic;" edge="1" parent="1" source="VsR7F8Zh5hgwnbF70GJV-49" target="VsR7F8Zh5hgwnbF70GJV-50">
          <mxGeometry relative="1" as="geometry" />
        </mxCell>
        <mxCell id="VsR7F8Zh5hgwnbF70GJV-49" value="&lt;font style=&quot;font-size: 40px;&quot;&gt;5&lt;/font&gt;" style="ellipse;whiteSpace=wrap;html=1;aspect=fixed;strokeWidth=5;fillColor=#d5e8d4;strokeColor=#82b366;" vertex="1" parent="1">
          <mxGeometry x="1300" y="1860" width="80" height="80" as="geometry" />
        </mxCell>
        <mxCell id="VsR7F8Zh5hgwnbF70GJV-50" value="&lt;font style=&quot;font-size: 40px;&quot;&gt;4&lt;/font&gt;" style="ellipse;whiteSpace=wrap;html=1;aspect=fixed;strokeWidth=5;fontFamily=Helvetica;fontSize=11;fontColor=default;" vertex="1" parent="1">
          <mxGeometry x="1210" y="2000" width="80" height="80" as="geometry" />
        </mxCell>
        <mxCell id="VsR7F8Zh5hgwnbF70GJV-51" value="8" style="ellipse;whiteSpace=wrap;html=1;aspect=fixed;strokeWidth=5;fontSize=40;fontFamily=Helvetica;fontColor=default;" vertex="1" parent="1">
          <mxGeometry x="1490" y="1840" width="80" height="80" as="geometry" />
        </mxCell>
        <mxCell id="VsR7F8Zh5hgwnbF70GJV-52" value="10" style="ellipse;whiteSpace=wrap;html=1;aspect=fixed;strokeWidth=5;fontSize=40;fontFamily=Helvetica;fontColor=default;" vertex="1" parent="1">
          <mxGeometry x="1700" y="1830" width="80" height="80" as="geometry" />
        </mxCell>
      </root>
    </mxGraphModel>
  </diagram>
</mxfile>
